<?xml version="1.0" encoding="UTF-8"?>
<svg id="Calque_2" data-name="Calque 2" xmlns="http://www.w3.org/2000/svg" viewBox="0 0 149.31 65.42">
  <defs>
    <style>
      .cls-1 {
        fill: #3f3f3f;
      }
    </style>
  </defs>
  <g id="Calque_1-2" data-name="Calque 1">
    <g id="logo_Boks_4_NOIR" data-name="logo Boks  4 NOIR">
      <g>
        <path class="cls-1" d="m20.86,25.81c-3.91,0-7.69,1.66-10.25,4.63V0H0v64.16h10.61v-3.51h.13c2.16,3.06,6.16,4.72,9.94,4.72,10.93,0,17.17-9.8,17.17-19.96-.04-9.76-6.47-19.6-16.99-19.6m-2.56,30.21c-5.44,0-8.77-5.44-8.77-10.43s3.33-10.39,8.77-10.39,8.77,5.35,8.77,10.39-3.28,10.43-8.77,10.43"/>
        <path class="cls-1" d="m59.71,25.81c-11.55,0-19.56,8.23-19.56,19.78s7.87,19.74,19.56,19.74,19.51-8.18,19.51-19.74-7.96-19.78-19.51-19.78m0,30.21c-5.44,0-8.77-5.35-8.77-10.39s3.33-10.43,8.77-10.43,8.77,5.35,8.77,10.43-3.33,10.39-8.77,10.39"/>
        <path class="cls-1" d="m141.62,41.54c-3.78-1.66-7.64-2.43-7.64-5.13,0-1.8,1.75-3.19,3.51-3.19,2.11,0,4.09,1.12,5.62,2.56l4.54-6.11c-3.01-2.65-8-3.87-11.96-3.87-6.97,0-11.78,5.08-11.78,12.05,0,5.98,3.69,8.18,7.42,9.76,3.73,1.57,7.42,2.34,7.42,5.62,0,2.43-1.89,4-4.23,4-3.1,0-5.84-2.02-7.87-4.32l-4.86,6.29c3.24,3.91,8,6.2,13.08,6.2,7.78,0,14.43-4.9,14.43-13.17-.04-6.47-3.82-9.04-7.69-10.7"/>
        <polygon class="cls-1" points="119.86 27.02 106.06 27.02 94.95 40.64 94.82 40.64 94.82 0 84.21 0 84.21 64.16 94.82 64.16 94.82 48.33 94.95 48.33 107.14 64.16 121.08 64.16 104.17 43.34 119.86 27.02"/>
      </g>
    </g>
  </g>
</svg>